PathFileType	4	(X/Y/Z)	Kaydara																																																																																																																									
DataRate	CameraRate	NumFrames	NumMarkers	Units	OrigDataRate	OrigDataStartFrame	OrigNumFrames																																																																																																																					
30	30	5	41	mm	30	1	167																																																																																																																					
Frame#	Time	PAIB_LFHD			PAIB_RFHD			PAIB_LBHD			PAIB_RBHD			PAIB_LFTShould			PAIB_RFTShould			PAIB_LRRShould			PAIB_RRRShould			PAIB_T10			PAIB_STRN			PAIB_TRUN			PAIB_LSHO			PAIB_LUPA			PAIB_LELB			PAIB_LFRM			PAIB_LWRA			PAIB_LWRB			PAIB_LFIN			PAIB_RSHO			PAIB_RUPA			PAIB_RELB			PAIB_RFRM			PAIB_RWRA			PAIB_RWRB			PAIB_RFIN			PAIB_LFWT			PAIB_RFWT			PAIB_LBWT			PAIB_RBWT			PAIB_LTHI			PAIB_LKNE			PAIB_LSHN			PAIB_LANK			PAIB_LHEE			PAIB_LTOE			PAIB_RTHI			PAIB_RKNE			PAIB_RSHN			PAIB_RANK			PAIB_RHEE			PAIB_RTOE		
		X1	Y1	Z1	X2	Y2	Z2	X3	Y3	Z3	X4	Y4	Z4	X5	Y5	Z5	X6	Y6	Z6	X7	Y7	Z7	X8	Y8	Z8	X9	Y9	Z9	X10	Y10	Z10	X11	Y11	Z11	X12	Y12	Z12	X13	Y13	Z13	X14	Y14	Z14	X15	Y15	Z15	X16	Y16	Z16	X17	Y17	Z17	X18	Y18	Z18	X19	Y19	Z19	X20	Y20	Z20	X21	Y21	Z21	X22	Y22	Z22	X23	Y23	Z23	X24	Y24	Z24	X25	Y25	Z25	X26	Y26	Z26	X27	Y27	Z27	X28	Y28	Z28	X29	Y29	Z29	X30	Y30	Z30	X31	Y31	Z31	X32	Y32	Z32	X33	Y33	Z33	X34	Y34	Z34	X35	Y35	Z35	X36	Y36	Z36	X37	Y37	Z37	X38	Y38	Z38	X39	Y39	Z39	X40	Y40	Z40	X41	Y41	Z41
																																																																																																																												
1	0.01	240.28847	1705.28549	-2010.28259	51.95528	1703.84033	-2022.22031	252.69398	1654.28421	-2128.99261	50.33911	1667.63992	-2133.14972	210.90984	1436.72318	-1997.74048	86.60836	1432.06985	-2001.55182	220.82045	1486.75171	-2148.89816	67.57776	1484.70612	-2141.3501	144.33884	1319.09897	-2208.91968	158.04201	1373.25333	-1954.03351	158.3038	1274.86656	-1921.418	342.55825	1439.50287	-2080.05737	397.2596	1212.015	-2085.74997	408.66718	1128.1781	-2126.91193	439.50062	1018.11417	-2086.0611	404.47002	908.10028	-1981.79352	429.89368	885.77927	-2052.81281	455.92758	854.78233	-1991.32599	-41.91989	1428.81805	-2059.38156	-102.60781	1252.6593	-2097.15668	-124.28092	1136.98685	-2101.68976	-154.58647	1003.70926	-2076.4978	-122.2149	895.03181	-1972.13257	-180.26184	886.50162	-2031.80618	-187.0369	849.8674	-1966.82877	266.20636	972.94174	-1946.42792	29.99529	973.6628	-1938.44574	198.78973	1024.98619	-2158.40652	54.02272	1028.03932	-2149.82544	249.57754	749.7802	-2159.68597	284.0383	503.15666	-2075.31647	265.22659	312.85381	-2074.17358	265.67419	128.82219	-2162.11792	210.41689	119.32503	-2209.06738	252.33282	74.91311	-1987.30988	-3.72514	731.87271	-2149.28268	-4.79997	487.687	-2080.23926	55.5534	303.33042	-2072.61154	25.8978	104.98292	-2163.32245	87.23774	113.23756	-2214.28253	42.00027	77.24511	-1991.27884
2	0.043	240.26562	1705.04547	-2008.67859	51.88377	1703.61237	-2020.42801	252.61797	1654.64615	-2127.72171	50.19666	1667.83997	-2131.4679	210.84442	1436.50452	-1996.56372	86.60563	1431.95557	-2000.35004	220.77532	1486.46683	-2147.49527	67.52941	1484.50668	-2140.13992	144.269	1318.91785	-2207.78168	157.90088	1373.13797	-1952.93198	158.10564	1274.67392	-1920.29694	342.49939	1439.41864	-2078.74359	398.19103	1212.14035	-2083.50906	409.89231	1129.09416	-2125.77423	440.90942	1018.53935	-2083.02856	405.73433	908.76381	-1978.05435	431.53702	886.18927	-2048.93997	457.62192	855.82085	-1987.23465	-42.02647	1428.6441	-2058.19962	-102.55052	1252.31514	-2095.60516	-123.94398	1136.59874	-2100.05295	-153.24658	1002.95364	-2073.50189	-119.52793	895.52925	-1968.48572	-177.4534	885.71815	-2028.08563	-183.85759	849.87312	-1962.31735	266.0187	972.74475	-1945.34119	29.77097	973.34785	-1937.4118	198.69814	1025.06592	-2157.10938	53.98726	1028.17589	-2148.6409	249.32074	749.77829	-2158.68942	283.70609	503.06049	-2074.64981	264.93132	313.05326	-2073.42987	265.36289	128.98199	-2161.95084	210.04847	119.38732	-2208.8707	252.33753	74.91589	-1987.28867	-3.75647	731.96686	-2148.7384	-4.52004	487.66899	-2080.12817	55.54687	303.40998	-2072.80823	26.04525	105.22331	-2163.46512	87.80315	113.2651	-2214.36737	41.95504	77.24276	-1991.27121
3	0.077	240.57928	1705.05096	-2006.53946	51.80476	1703.32733	-2018.53439	252.624	1655.15442	-2126.18103	50.19028	1668.25653	-2129.74731	210.12516	1436.24359	-1994.6286	86.72878	1431.74393	-1998.94302	220.67053	1486.31058	-2146.12503	67.4281	1484.42535	-2138.85315	144.20273	1318.90472	-2206.71051	157.66794	1372.82776	-1951.61118	157.96589	1274.39735	-1919.03122	342.44499	1439.4043	-2077.5679	398.68526	1211.84639	-2080.86716	411.2764	1128.05199	-2121.69144	442.17518	1017.66953	-2077.19864	406.44688	909.66881	-1974.31519	432.51698	886.69029	-2044.90662	458.62274	856.85547	-1983.0043	-42.02592	1428.38608	-2056.61713	-102.4791	1251.9857	-2093.83469	-123.5242	1135.93925	-2097.92313	-152.11252	1002.38708	-2070.44968	-116.84791	895.79193	-1965.15991	-174.95028	885.037	-2024.15497	-180.73412	849.78737	-1958.05008	265.96138	972.46269	-1944.06021	29.76584	973.17268	-1936.68488	198.78387	1025.23071	-2156.0556	54.16311	1028.40645	-2147.82822	249.10864	749.72389	-2157.97775	283.6577	502.9668	-2074.37134	264.82594	313.1259	-2073.09753	265.21452	128.52281	-2162.18796	209.83786	119.3878	-2208.73795	252.39611	74.8946	-1987.24213	-3.77453	731.99875	-2148.48587	-4.48861	487.63332	-2080.4921	55.56534	303.52217	-2073.03543	26.02473	105.36951	-2163.73199	87.66582	113.29162	-2214.28421	41.89415	77.24597	-1991.25
4	0.11	240.81816	1704.83765	-2004.23798	51.77429	1703.09448	-2016.57684	252.99841	1655.79605	-2124.66599	50.353	1668.77838	-2127.98416	210.34222	1436.1026	-1993.35419	86.80754	1431.43631	-1997.67426	220.69883	1486.33759	-2144.85306	67.43378	1484.22974	-2137.40204	144.34036	1318.86215	-2205.3801	157.77496	1372.66998	-1950.37537	158.01105	1274.21715	-1917.8598	342.54601	1439.4133	-2076.38794	399.08478	1211.97838	-2079.04663	411.96468	1128.02628	-2119.55048	442.61841	1017.82776	-2074.06204	406.57837	910.92148	-1970.38879	432.6997	887.25143	-2040.83069	458.70884	857.87552	-1978.65967	-41.91584	1428.09723	-2055.20828	-102.28783	1251.58508	-2091.95892	-123.35728	1135.5571	-2095.96848	-151.07847	1001.83182	-2067.63672	-114.25312	895.70267	-1962.13516	-172.79654	884.21379	-2020.53528	-177.95589	849.55254	-1954.24423	265.76715	972.15782	-1943.05847	29.19362	972.88879	-1936.24176	199.00639	1025.33203	-2155.18112	54.48051	1028.56712	-2147.32452	249.01785	749.84726	-2157.53983	283.29762	502.80716	-2074.49799	264.63648	313.10843	-2073.23029	264.9593	128.5745	-2162.22809	209.60619	119.40901	-2208.71674	252.44102	74.89622	-1987.22382	-3.57052	731.90567	-2148.53394	-4.48898	487.49516	-2081.29837	55.57923	303.52661	-2073.10181	26.27733	105.57395	-2163.78174	88.12835	113.36004	-2214.14474	41.85063	77.18786	-1991.1882
5	0.143	236.10212	1702.12143	-2000.08591	51.74545	1702.72415	-2014.54651	253.2246	1656.18805	-2121.86386	50.64544	1669.22043	-2126.18774	210.47443	1435.80856	-1992.09457	87.10183	1431.26694	-1996.49521	220.89741	1486.32492	-2143.47641	67.60204	1484.23416	-2136.05911	144.56874	1318.95111	-2204.23645	157.96711	1372.39716	-1949.14963	158.05159	1273.94684	-1916.81992	342.74952	1439.41605	-2075.05997	399.45541	1212.18048	-2077.76566	412.27982	1127.92168	-2117.95197	442.36481	1017.85187	-2071.22559	405.87116	912.23534	-1966.52176	431.95309	887.75795	-2036.76559	457.82063	858.96294	-1974.24789	-41.64619	1427.90436	-2053.74817	-101.98828	1251.25282	-2089.95239	-122.88324	1135.13527	-2093.89267	-150.06567	1001.35773	-2065.02182	-112.12789	895.67261	-1959.48151	-170.97557	883.7571	-2017.444	-175.62998	849.43115	-1950.95139	265.35337	971.70204	-1942.15851	28.68378	972.79259	-1935.69366	199.0847	1025.64537	-2154.24393	54.64471	1028.83179	-2146.83578	248.89288	750.11017	-2157.4556	283.15025	502.87365	-2074.94125	264.57872	313.30181	-2073.56735	264.85138	128.57695	-2162.33871	209.43436	119.38848	-2208.71384	252.49458	74.89633	-1987.21527	-2.81364	731.80763	-2148.59146	-4.30377	487.45178	-2081.39709	55.52739	303.49173	-2073.01178	26.5594	105.68871	-2163.95523	88.54446	113.42624	-2213.98041	41.84407	77.1811	-1991.0704
